<?xml version="1.0" encoding="utf-8"?>
<!-- Generator: Adobe Illustrator 16.0.0, SVG Export Plug-In . SVG Version: 6.00 Build 0)  -->
<!DOCTYPE svg PUBLIC "-//W3C//DTD SVG 1.1//EN" "http://www.w3.org/Graphics/SVG/1.1/DTD/svg11.dtd">
<svg version="1.1" id="Layer_1" xmlns="http://www.w3.org/2000/svg" xmlns:xlink="http://www.w3.org/1999/xlink" x="0px" y="0px"
	 width="792px" height="500px" viewBox="0 0 792 500" enable-background="new 0 0 792 500" xml:space="preserve">
<g>
	<polyline fill="#270E33" points="764.823,293.419 715.037,242.896 764.823,192.372 27.177,192.372 76.969,242.896 27.177,293.419 	
		"/>
	<text transform="matrix(1 0 0 1 364.0498 341.6572)" fill="#421D56" font-family="'MinionPro-Medium'" font-size="33.0726">2015</text>
	<polygon fill="#F5F0FF" points="394.964,242.68 466.965,163.872 325.029,163.872 	"/>
	<polygon fill="#F5F0FF" points="397.03,238.447 325.029,317.255 466.965,317.255 	"/>
	<g id="g3805" transform="matrix(3.6185261,0,0,3.6185261,-1238.8138,-534.3384)">
		<path id="path2786" fill="#421D56" d="M452.214,189.644v1.506h0.098h0.109l0.182,0.194c1.179,1.241,1.723,2.147,1.821,3.002
			c0.011,0.144,0.011,0.494-0.012,0.711c-0.062,0.568-0.218,1.183-0.447,1.712c-0.023,0.074-0.047,0.132-0.047,0.17
			c0,0.047,0.035,0.144,0.082,0.18c0.039,0.049,0.145,0.084,0.206,0.084c0.047,0,0.157-0.049,0.194-0.084
			c0.035-0.036,0.083-0.156,0.179-0.448c0.314-0.952,0.435-1.94,0.314-2.675c-0.072-0.435-0.228-0.868-0.469-1.362
			c-0.182-0.361-0.339-0.628-0.785-1.351c-0.603-0.965-0.832-1.423-1.011-1.965c-0.121-0.362-0.206-0.809-0.206-1.109v-0.073h-0.097
			h-0.11V189.644z"/>
		<g>
			<path id="path2790_1_" fill="#421D56" d="M452.32,197.966h0.152v-9.74h-0.152V197.966z"/>
			<path fill="#421D56" d="M452.472,197.999h-0.152c-0.018,0-0.033-0.015-0.033-0.033v-9.74c0-0.019,0.015-0.033,0.033-0.033h0.152
				c0.019,0,0.032,0.015,0.032,0.033v9.74C452.505,197.985,452.491,197.999,452.472,197.999z M452.354,197.933h0.085v-9.674h-0.085
				V197.933z"/>
		</g>
		<path id="path2792" fill="#421D56" d="M451.033,196.771c-0.494,0.061-0.999,0.264-1.435,0.602
			c-0.495,0.361-0.833,0.844-0.941,1.338c-0.024,0.158-0.024,0.435,0.012,0.555c0.108,0.423,0.447,0.687,0.953,0.797
			c0.144,0.023,0.508,0.023,0.688,0c0.458-0.085,0.928-0.291,1.337-0.591c0.483-0.361,0.821-0.843,0.93-1.338
			c0.023-0.157,0.023-0.433-0.012-0.567c-0.11-0.396-0.435-0.664-0.918-0.773C451.514,196.771,451.176,196.758,451.033,196.771z"/>
	</g>
	<g>
		<g>
			<g>
				<path fill="none" stroke="#F5F0FF" stroke-width="3" d="M303.883,333.293c3.05-1.568,5.118-4.242,7.424-6.636
					c2.186-2.275,4.33-4.581,6.682-7.074c-0.658-0.352-1.127-0.731-1.662-0.865c-1.628-0.401-2.377-1.667-1.883-3.349
					c0.842-2.875,5.205-5.973,8.166-5.525c0.857,0.131,1.58,1.165,2.614,1.979c1.315-1.15,3.047-2.667,5.124-4.484
					c-0.645-0.382-1.116-0.873-1.641-0.941c-1.86-0.236-2.812-1.32-2.54-3.108c0.436-2.877,4.607-6.527,7.463-6.528
					c1.599-0.007,2.608,1.042,3.154,3.426c0.891-0.944,1.705-1.809,2.54-2.694c-3.883-2.334-3.883-2.336-1.901-4.036
					c-1.226-2.593-1.272-2.686,0.968-4.75c1.226-1.128,2.662-2.025,4.206-3.184c-0.442-1.098,0.344-2.029,1.612-2.794
					c2.049-1.232,2.567-1.189,6.29,0.904c0.294-0.304,0.629-0.654,1.129-1.175c-1.018-0.789-1.91-1.422-2.717-2.149
					c-0.409-0.37-0.974-0.974-0.901-1.368c0.078-0.437,0.753-0.908,1.267-1.091c0.96-0.34,1.979-0.424,1.448-1.93
					c-0.086-0.236,0.61-0.818,1.015-1.154c1.517-1.257,3.062-2.474,4.589-3.715c0.125-0.1,0.326-0.29,0.299-0.374
					c-0.664-2.023,0.776-2.504,2.145-3.261c0.809-0.448,1.244-1.52,1.969-2.179c0.665-0.605,1.55-0.966,2.231-1.559
					c1.72-1.49,3.378-3.052,5.062-4.583c0.078-0.076,0.181-0.132,0.244-0.218c3.562-4.759,8.231-8.456,12.194-12.838
					c3.982-4.401,8.161-8.63,12.346-12.841c8.53-8.587,17.128-17.102,25.665-25.671c0.46-0.46,0.61-1.213,0.987-1.774
					c0.271-0.404,0.63-0.931,1.039-1.031c1.407-0.336,2.454-0.901,2.454-2.542c0-0.055,0.011-0.135,0.043-0.157
					c1.392-0.872,2.776-1.765,4.211-2.559c0.091-0.048,0.793,0.621,0.883,1.024c0.333,1.573,0.284,1.583,2.036,2.69
					c1.786-1.788,3.631-3.604,5.426-5.461c0.234-0.245,0.29-0.705,0.337-1.077c0.146-1.195,0.667-1.901,1.989-1.998
					c0.457-0.033,0.941-0.517,1.305-0.896c1.535-1.604,3.14-3.16,4.503-4.898c1.35-1.718,2.087-3.628,4.739-4.345
					c1.801-0.484,3.053-2.922,4.613-4.422c4.28-4.115,8.591-8.198,13.116-12.504c-1.982-1.383-1.344-2.298-0.372-3.271
					c2.116-2.118,4.061-4.433,6.323-6.378c1.179-1.017,2.878-1.424,4.354-2.089c0.285-0.129,0.722-0.072,0.895-0.269
					c1.515-1.731,2.977-3.507,4.475-5.249c0.392-0.452,0.852-0.842,1.277-1.259c0.666,0,1.332,0,1.998,0
					c1.348,0.498,2.571,1.133,2.999,2.665c0,0.778,0,1.556,0,2.33c-0.499,0.714-0.916,1.502-1.504,2.13
					c-10.554,11.175-21.139,22.323-31.686,33.509c-0.566,0.605-0.845,1.48-1.299,2.201c-0.315,0.5-0.608,1.166-1.081,1.392
					c-3.262,1.534-5.471,4.392-7.203,7.167c-1.235,1.978-3.024,2.802-4.423,4.277c-3.395,3.59-6.791,7.177-10.184,10.765
					c-8.121,8.591-16.246,17.174-24.339,25.787c-0.545,0.576-0.962,1.333-1.241,2.077c-0.599,1.597-1.79,2.318-3.35,2.645
					c-0.423,0.086-0.833,0.236-1.347,0.387c0.786,1.407,1.704,0.964,2.679,0.457c1.926-0.998,3.713-0.844,4.916,0.367
					c1.161,1.17,1.104,2.012-0.204,3.009c-2.514,1.921-5.487,1.588-8.736-1.114c0.168,3.354-1.453,4.9-4.643,4.936
					c-0.339,0.006-0.71,0.477-1.006,0.788c-11.144,11.768-22.275,23.543-33.403,35.32c-0.264,0.272-0.684,0.667-0.63,0.92
					c0.487,2.301-0.812,2.988-2.97,3.094c1.051,3.111-0.289,5.464-2.07,7.723c-1.036,1.313-2.28,1.753-3.807,1.138
					c-0.893-0.358-1.453-0.228-2.135,0.497c-11.156,11.827-22.346,23.627-33.526,35.432c-0.229,0.241-0.489,0.467-0.66,0.745
					c-1.494,2.438-1.482,2.433-3.778,0.86c-2.695-1.847-4.889-4.164-6.601-6.939C303.883,333.513,303.883,333.401,303.883,333.293z
					 M406.061,229.745c0.032-1.609,0.217-3.146-1.829-3.808c-1.131,1.021-2.35,2.113-3.637,3.273
					c0.357,0.292,0.648,0.738,0.937,0.738C402.997,229.944,404.462,229.829,406.061,229.745z M394.96,238.447
					c-1.533,1.556-2.98,3.029-4.7,4.779c0.872,0.387,1.746,0.774,2.817,1.252c0.066-0.964,0.103-1.44,0.132-1.884
					C395.406,241.784,396.265,239.537,394.96,238.447z M396.22,233.907c1.041,1.953,2.28,3.184,4.472,2.629
					c0.23-2.136-0.683-3.555-2.78-4.383C397.386,232.7,396.818,233.287,396.22,233.907z M377.103,255.186
					c-1.022-0.975-1.831-0.46-3.229,1.957c2.005,1.557,5.001,1.175,6.059-1.064c-1.585,0.28-2.976,0.523-4.713,0.829
					C375.983,256.205,376.497,255.736,377.103,255.186z M416.444,216.653c1.104-1.038,2.127-2.004,3.163-2.984
					c-0.566-0.654-1.026-1.181-1.521-1.755c-1.172,1.086-2.173,2.012-3.253,3.012C415.372,215.507,415.852,216.019,416.444,216.653z
					 M387.793,246.036c-0.896,1.015-1.783,2.024-2.718,3.083c1.47,0.39,2.761,0.729,4.18,1.104
					C388.778,248.854,389.917,247.021,387.793,246.036z M411.193,218.209c0.812,0.611,1.494,1.123,2.221,1.668
					c0.781-0.749,1.437-1.381,2.177-2.085c-0.697-0.737-1.278-1.351-1.853-1.957C412.828,216.686,412.062,217.397,411.193,218.209z
					 M410.124,220.662c-0.782,0.747-1.449,1.328-2.04,1.975c-0.175,0.194-0.277,0.637-0.171,0.855
					c0.098,0.222,0.505,0.445,0.758,0.428c1.245-0.093,2.477-0.268,3.995-0.447C411.758,222.473,411.007,221.638,410.124,220.662z
					 M353.562,284.806c0.263-0.023,0.527-0.048,0.792-0.068c-0.028-0.49-0.009-0.991-0.101-1.47
					c-0.209-1.108-0.447-2.215-0.72-3.312c-0.136-0.539-0.367-1.056-0.555-1.583c-0.427,0.221-1.092,0.344-1.223,0.677
					c-0.175,0.459-0.039,1.104,0.134,1.612c0.225,0.663,0.652,1.247,0.917,1.895C353.104,283.288,353.312,284.054,353.562,284.806z
					 M424.648,209.71c-0.965-0.808-1.739-1.456-2.503-2.094c-0.526,0.512-0.929,0.907-1.37,1.34
					C421.878,209.91,422.896,210.827,424.648,209.71z M367.767,263.818c0.54,0.498,0.889,1.021,1.356,1.19
					c0.472,0.169,1.065-0.017,1.603-0.044c-0.12-0.456-0.137-0.973-0.378-1.356c-0.31-0.49-0.794-0.872-1.273-1.375
					C368.612,262.796,368.24,263.249,367.767,263.818z M358.287,275.931c-0.368-0.889-0.688-1.658-1.146-2.772
					c-0.602,0.945-1.658,1.912-1.474,2.448C356.186,277.106,357.38,275.557,358.287,275.931z M426.154,207.282
					c-0.704-0.452-1.2-0.772-1.74-1.12c-0.435,0.53-0.778,0.942-1.2,1.453c0.484,0.385,0.898,0.716,1.346,1.072
					C425.089,208.221,425.535,207.828,426.154,207.282z M410.512,218.699c-0.164,0.154-0.324,0.305-0.49,0.457
					c1.021,0.769,2.039,1.538,3.013,2.271C412.648,220.22,411.479,219.544,410.512,218.699z M427.848,202.939
					c-1.69,1.38-1.695,1.407-0.38,2.449c0.544-0.423,1.088-0.842,1.722-1.335C428.556,203.525,428.195,203.224,427.848,202.939z"/>
				<path fill="none" stroke="#F5F0FF" stroke-width="3" d="M488.112,151.728c-0.428-1.532-1.651-2.167-2.999-2.665
					c0.998,0,1.997,0,2.999,0C488.112,149.948,488.112,150.837,488.112,151.728z"/>
				<path fill="none" stroke="#F5F0FF" stroke-width="3" d="M406.061,229.745c-1.599,0.084-3.063,0.2-4.529,0.204
					c-0.288,0-0.579-0.446-0.937-0.738c1.287-1.161,2.506-2.252,3.637-3.273C406.277,226.598,406.093,228.135,406.061,229.745z"/>
				<path fill="none" stroke="#F5F0FF" stroke-width="3" d="M394.96,238.447c1.305,1.09,0.446,3.337-1.751,4.147
					c-0.029,0.443-0.065,0.92-0.132,1.884c-1.071-0.478-1.945-0.865-2.817-1.252C391.979,241.477,393.427,240.003,394.96,238.447z"
					/>
				<path fill="none" stroke="#F5F0FF" stroke-width="3" d="M396.22,233.907c0.599-0.62,1.166-1.207,1.691-1.753
					c2.098,0.828,3.011,2.247,2.78,4.383C398.5,237.091,397.261,235.859,396.22,233.907z"/>
				<path fill="none" stroke="#F5F0FF" stroke-width="3" d="M377.103,255.186c-0.605,0.551-1.119,1.02-1.883,1.722
					c1.737-0.306,3.128-0.549,4.713-0.829c-1.058,2.239-4.054,2.621-6.059,1.064C375.271,254.726,376.08,254.211,377.103,255.186z"
					/>
				<path fill="none" stroke="#F5F0FF" stroke-width="3" d="M416.444,216.653c-0.593-0.635-1.072-1.146-1.61-1.728
					c1.08-1,2.081-1.926,3.253-3.012c0.494,0.574,0.954,1.101,1.521,1.755C418.571,214.649,417.549,215.615,416.444,216.653z"/>
				<path fill="none" stroke="#F5F0FF" stroke-width="3" d="M387.793,246.036c2.124,0.984,0.985,2.818,1.462,4.188
					c-1.419-0.376-2.71-0.715-4.18-1.104C386.01,248.061,386.897,247.051,387.793,246.036z"/>
				<path fill="none" stroke="#F5F0FF" stroke-width="3" d="M411.193,218.209c0.868-0.812,1.635-1.523,2.545-2.374
					c0.574,0.605,1.155,1.22,1.853,1.957c-0.74,0.705-1.396,1.337-2.177,2.085C412.688,219.332,412.006,218.82,411.193,218.209z"/>
				<path fill="none" stroke="#F5F0FF" stroke-width="3" d="M410.124,220.662c0.883,0.976,1.634,1.811,2.542,2.812
					c-1.519,0.179-2.75,0.354-3.995,0.447c-0.253,0.017-0.66-0.207-0.758-0.428c-0.106-0.218-0.004-0.661,0.171-0.855
					C408.675,221.99,409.342,221.409,410.124,220.662z"/>
				<path fill="none" stroke="#F5F0FF" stroke-width="3" d="M353.562,284.806c-0.25-0.752-0.458-1.518-0.755-2.25
					c-0.265-0.647-0.692-1.231-0.917-1.895c-0.173-0.509-0.309-1.153-0.134-1.612c0.131-0.333,0.796-0.456,1.223-0.677
					c0.188,0.527,0.419,1.044,0.555,1.583c0.272,1.098,0.511,2.204,0.72,3.312c0.092,0.479,0.072,0.979,0.101,1.47
					C354.09,284.758,353.825,284.782,353.562,284.806z"/>
				<path fill="none" stroke="#F5F0FF" stroke-width="3" d="M424.648,209.71c-1.753,1.117-2.771,0.2-3.873-0.754
					c0.441-0.433,0.844-0.829,1.37-1.34C422.909,208.254,423.684,208.902,424.648,209.71z"/>
				<path fill="none" stroke="#F5F0FF" stroke-width="3" d="M367.767,263.818c0.474-0.569,0.846-1.022,1.308-1.585
					c0.479,0.503,0.964,0.885,1.273,1.375c0.241,0.384,0.258,0.9,0.378,1.356c-0.537,0.027-1.131,0.213-1.603,0.044
					C368.655,264.84,368.307,264.316,367.767,263.818z"/>
				<path fill="none" stroke="#F5F0FF" stroke-width="3" d="M358.287,275.931c-0.907-0.374-2.102,1.176-2.619-0.324
					c-0.185-0.536,0.872-1.503,1.474-2.448C357.6,274.272,357.919,275.042,358.287,275.931z"/>
				<path fill="none" stroke="#F5F0FF" stroke-width="3" d="M426.154,207.282c-0.619,0.546-1.065,0.939-1.595,1.405
					c-0.447-0.355-0.861-0.687-1.346-1.072c0.422-0.511,0.766-0.923,1.2-1.453C424.954,206.51,425.45,206.831,426.154,207.282z"/>
				<path fill="none" stroke="#F5F0FF" stroke-width="3" d="M410.512,218.699c0.967,0.845,2.137,1.521,2.522,2.729
					c-0.974-0.733-1.992-1.503-3.013-2.271C410.188,219.004,410.348,218.853,410.512,218.699z"/>
				<path fill="none" stroke="#F5F0FF" stroke-width="3" d="M427.848,202.939c0.348,0.285,0.708,0.586,1.342,1.114
					c-0.634,0.493-1.178,0.912-1.722,1.335C426.152,204.346,426.157,204.319,427.848,202.939z"/>
			</g>
			<g>
				<path fill="none" stroke="#F5F0FF" stroke-width="3" d="M488.112,333.626c-1.715,2.775-3.906,5.093-6.603,6.939
					c-2.295,1.572-2.285,1.578-3.778-0.86c-0.168-0.278-0.433-0.504-0.657-0.745c-11.183-11.805-22.374-23.604-33.53-35.432
					c-0.684-0.725-1.24-0.855-2.133-0.497c-1.527,0.615-2.771,0.176-3.807-1.138c-1.78-2.259-3.118-4.611-2.07-7.723
					c-2.158-0.105-3.457-0.793-2.968-3.094c0.051-0.253-0.372-0.647-0.63-0.92c-11.129-11.777-22.262-23.553-33.404-35.32
					c-0.297-0.312-0.667-0.782-1.006-0.788c-3.19-0.035-4.809-1.582-4.644-4.936c-3.249,2.702-6.223,3.035-8.735,1.114
					c-1.309-0.997-1.366-1.839-0.207-3.009c1.205-1.211,2.992-1.365,4.918-0.367c0.975,0.507,1.893,0.95,2.68-0.457
					c-0.515-0.15-0.924-0.301-1.346-0.387c-1.562-0.326-2.753-1.048-3.352-2.645c-0.279-0.744-0.696-1.501-1.24-2.077
					c-8.094-8.613-16.223-17.196-24.342-25.787c-3.391-3.588-6.787-7.175-10.182-10.765c-1.397-1.475-3.188-2.299-4.423-4.277
					c-1.732-2.775-3.942-5.633-7.203-7.167c-0.475-0.227-0.764-0.892-1.08-1.392c-0.458-0.721-0.732-1.596-1.303-2.201
					c-10.545-11.186-21.129-22.333-31.684-33.509c-0.588-0.628-1.006-1.416-1.501-2.13c0-0.774,0-1.552,0-2.33
					c0.425-1.532,1.652-2.167,2.998-2.665c0.665,0,1.332,0,1.999,0c0.427,0.417,0.887,0.808,1.276,1.259
					c1.498,1.741,2.96,3.518,4.476,5.249c0.173,0.197,0.61,0.14,0.894,0.269c1.474,0.665,3.177,1.072,4.354,2.089
					c2.264,1.946,4.208,4.261,6.324,6.378c0.97,0.973,1.609,1.887-0.373,3.271c4.523,4.306,8.836,8.389,13.118,12.504
					c1.56,1.5,2.812,3.938,4.613,4.422c2.651,0.716,3.389,2.626,4.735,4.345c1.364,1.738,2.971,3.293,4.507,4.898
					c0.363,0.379,0.845,0.863,1.305,0.896c1.32,0.097,1.843,0.802,1.986,1.998c0.048,0.372,0.104,0.832,0.337,1.077
					c1.798,1.856,3.637,3.673,5.425,5.461c1.752-1.107,1.705-1.117,2.041-2.69c0.087-0.403,0.789-1.073,0.881-1.024
					c1.438,0.794,2.818,1.687,4.211,2.559c0.031,0.021,0.042,0.102,0.042,0.157c0,1.641,1.048,2.207,2.454,2.542
					c0.41,0.1,0.768,0.627,1.04,1.031c0.376,0.561,0.527,1.314,0.985,1.774c8.54,8.569,17.137,17.084,25.666,25.671
					c4.185,4.211,8.365,8.44,12.345,12.841c3.963,4.382,8.638,8.079,12.192,12.838c0.064,0.086,0.169,0.142,0.251,0.218
					c1.681,1.531,3.339,3.093,5.059,4.583c0.682,0.593,1.566,0.953,2.231,1.559c0.726,0.659,1.161,1.73,1.972,2.179
					c1.363,0.757,2.806,1.237,2.145,3.261c-0.03,0.084,0.17,0.274,0.297,0.374c1.527,1.241,3.073,2.458,4.584,3.715
					c0.41,0.336,1.105,0.918,1.017,1.154c-0.528,1.506,0.489,1.59,1.452,1.93c0.509,0.183,1.187,0.654,1.267,1.091
					c0.071,0.395-0.493,0.998-0.903,1.368c-0.806,0.728-1.697,1.36-2.715,2.149c0.498,0.521,0.833,0.871,1.128,1.175
					c3.725-2.094,4.244-2.137,6.29-0.904c1.266,0.765,2.056,1.696,1.61,2.794c1.543,1.158,2.979,2.056,4.206,3.184
					c2.239,2.064,2.195,2.157,0.971,4.75c1.978,1.7,1.978,1.702-1.903,4.036c0.835,0.886,1.648,1.75,2.538,2.694
					c0.547-2.384,1.556-3.433,3.158-3.426c2.854,0.001,7.027,3.651,7.463,6.528c0.271,1.788-0.681,2.872-2.541,3.108
					c-0.527,0.068-0.999,0.56-1.639,0.941c2.075,1.817,3.806,3.334,5.121,4.484c1.035-0.814,1.755-1.849,2.614-1.979
					c2.959-0.447,7.326,2.65,8.166,5.525c0.491,1.682-0.257,2.947-1.884,3.349c-0.534,0.134-1.005,0.514-1.662,0.865
					c2.35,2.493,4.495,4.799,6.681,7.074c2.307,2.394,4.377,5.067,7.426,6.636C488.112,333.401,488.112,333.513,488.112,333.626z
					 M390.463,229.948c0.288,0,0.58-0.446,0.937-0.738c-1.289-1.161-2.505-2.252-3.638-3.273c-2.043,0.662-1.863,2.199-1.83,3.808
					C387.532,229.829,388.997,229.944,390.463,229.948z M398.785,242.595c0.033,0.443,0.065,0.92,0.131,1.884
					c1.073-0.478,1.946-0.865,2.818-1.252c-1.72-1.75-3.167-3.224-4.704-4.779C395.729,239.537,396.587,241.784,398.785,242.595z
					 M394.083,232.153c-2.098,0.828-3.011,2.247-2.779,4.383c2.19,0.555,3.432-0.677,4.471-2.629
					C395.177,233.287,394.606,232.7,394.083,232.153z M416.775,256.907c-1.738-0.306-3.13-0.549-4.714-0.829
					c1.059,2.239,4.053,2.621,6.059,1.064c-1.396-2.417-2.206-2.932-3.229-1.957C415.493,255.736,416.011,256.205,416.775,256.907z
					 M377.16,214.926c-1.08-1-2.081-1.926-3.254-3.012c-0.496,0.574-0.953,1.101-1.519,1.755c1.039,0.98,2.059,1.946,3.163,2.984
					C376.144,216.019,376.622,215.507,377.16,214.926z M402.743,250.224c1.416-0.376,2.707-0.715,4.177-1.104
					c-0.936-1.059-1.822-2.068-2.719-3.083C402.077,247.021,403.216,248.854,402.743,250.224z M378.258,215.836
					c-0.576,0.605-1.157,1.22-1.854,1.957c0.74,0.705,1.396,1.337,2.177,2.085c0.729-0.546,1.406-1.058,2.221-1.668
					C379.929,217.397,379.167,216.686,378.258,215.836z M379.331,223.474c1.519,0.179,2.748,0.354,3.989,0.447
					c0.257,0.017,0.663-0.207,0.766-0.428c0.102-0.218,0-0.661-0.176-0.855c-0.592-0.646-1.257-1.228-2.04-1.975
					C380.987,221.638,380.236,222.473,379.331,223.474z M439.186,282.556c0.266-0.647,0.695-1.231,0.916-1.895
					c0.173-0.509,0.312-1.153,0.136-1.612c-0.131-0.333-0.798-0.456-1.222-0.677c-0.188,0.527-0.42,1.044-0.552,1.583
					c-0.276,1.098-0.519,2.204-0.725,3.312c-0.09,0.479-0.068,0.979-0.098,1.47c0.266,0.021,0.527,0.045,0.793,0.068
					C438.682,284.054,438.891,283.288,439.186,282.556z M371.223,208.956c-0.443-0.433-0.848-0.829-1.375-1.34
					c-0.761,0.638-1.537,1.287-2.5,2.094C369.099,210.827,370.116,209.91,371.223,208.956z M422.92,262.233
					c-0.483,0.503-0.963,0.885-1.272,1.375c-0.24,0.384-0.261,0.9-0.38,1.356c0.54,0.027,1.132,0.213,1.603,0.044
					c0.469-0.169,0.817-0.692,1.357-1.19C423.757,263.249,423.382,262.796,422.92,262.233z M436.327,275.606
					c0.185-0.536-0.872-1.503-1.473-2.448c-0.462,1.114-0.778,1.884-1.147,2.772C434.614,275.557,435.809,277.106,436.327,275.606z
					 M367.434,208.688c0.448-0.355,0.864-0.687,1.349-1.072c-0.423-0.511-0.768-0.923-1.202-1.453
					c-0.54,0.348-1.035,0.668-1.739,1.12C366.459,207.828,366.902,208.221,367.434,208.688z M378.959,221.428
					c0.974-0.733,1.997-1.503,3.014-2.271c-0.163-0.152-0.33-0.303-0.49-0.457C380.516,219.544,379.346,220.22,378.959,221.428z
					 M362.807,204.053c0.632,0.493,1.173,0.912,1.721,1.335c1.313-1.042,1.313-1.069-0.381-2.449
					C363.803,203.224,363.438,203.525,362.807,204.053z"/>
				<path fill="none" stroke="#F5F0FF" stroke-width="3" d="M303.883,151.728c0.425-1.532,1.652-2.167,2.998-2.665
					c-0.999,0-1.999,0-2.998,0C303.883,149.948,303.883,150.837,303.883,151.728z"/>
				<path fill="none" stroke="#F5F0FF" stroke-width="3" d="M385.932,229.745c1.601,0.084,3.065,0.2,4.531,0.204
					c0.288,0,0.58-0.446,0.937-0.738c-1.289-1.161-2.505-2.252-3.638-3.273C385.719,226.598,385.898,228.135,385.932,229.745z"/>
				<path fill="none" stroke="#F5F0FF" stroke-width="3" d="M397.03,238.447c-1.301,1.09-0.443,3.337,1.755,4.147
					c0.033,0.443,0.065,0.92,0.131,1.884c1.073-0.478,1.946-0.865,2.818-1.252C400.015,241.477,398.567,240.003,397.03,238.447z"/>
				<path fill="none" stroke="#F5F0FF" stroke-width="3" d="M395.774,233.907c-0.598-0.62-1.168-1.207-1.691-1.753
					c-2.098,0.828-3.011,2.247-2.779,4.383C393.494,237.091,394.735,235.859,395.774,233.907z"/>
				<path fill="none" stroke="#F5F0FF" stroke-width="3" d="M414.892,255.186c0.602,0.551,1.119,1.02,1.884,1.722
					c-1.738-0.306-3.13-0.549-4.714-0.829c1.059,2.239,4.053,2.621,6.059,1.064C416.725,254.726,415.914,254.211,414.892,255.186z"
					/>
				<path fill="none" stroke="#F5F0FF" stroke-width="3" d="M375.551,216.653c0.593-0.635,1.071-1.146,1.609-1.728
					c-1.08-1-2.081-1.926-3.254-3.012c-0.496,0.574-0.953,1.101-1.519,1.755C373.427,214.649,374.446,215.615,375.551,216.653z"/>
				<path fill="none" stroke="#F5F0FF" stroke-width="3" d="M404.201,246.036c-2.124,0.984-0.985,2.818-1.458,4.188
					c1.416-0.376,2.707-0.715,4.177-1.104C405.984,248.061,405.098,247.051,404.201,246.036z"/>
				<path fill="none" stroke="#F5F0FF" stroke-width="3" d="M380.801,218.209c-0.872-0.812-1.634-1.523-2.543-2.374
					c-0.576,0.605-1.157,1.22-1.854,1.957c0.74,0.705,1.396,1.337,2.177,2.085C379.309,219.332,379.986,218.82,380.801,218.209z"/>
				<path fill="none" stroke="#F5F0FF" stroke-width="3" d="M381.87,220.662c-0.883,0.976-1.634,1.811-2.539,2.812
					c1.519,0.179,2.748,0.354,3.989,0.447c0.257,0.017,0.663-0.207,0.766-0.428c0.102-0.218,0-0.661-0.176-0.855
					C383.318,221.99,382.653,221.409,381.87,220.662z"/>
				<path fill="none" stroke="#F5F0FF" stroke-width="3" d="M438.435,284.806c0.247-0.752,0.456-1.518,0.751-2.25
					c0.266-0.647,0.695-1.231,0.916-1.895c0.173-0.509,0.312-1.153,0.136-1.612c-0.131-0.333-0.798-0.456-1.222-0.677
					c-0.188,0.527-0.42,1.044-0.552,1.583c-0.276,1.098-0.519,2.204-0.725,3.312c-0.09,0.479-0.068,0.979-0.098,1.47
					C437.907,284.758,438.169,284.782,438.435,284.806z"/>
				<path fill="none" stroke="#F5F0FF" stroke-width="3" d="M367.348,209.71c1.751,1.117,2.769,0.2,3.875-0.754
					c-0.443-0.433-0.848-0.829-1.375-1.34C369.087,208.254,368.311,208.902,367.348,209.71z"/>
				<path fill="none" stroke="#F5F0FF" stroke-width="3" d="M424.228,263.818c-0.471-0.569-0.846-1.022-1.308-1.585
					c-0.483,0.503-0.963,0.885-1.272,1.375c-0.24,0.384-0.261,0.9-0.38,1.356c0.54,0.027,1.132,0.213,1.603,0.044
					C423.339,264.84,423.688,264.316,424.228,263.818z"/>
				<path fill="none" stroke="#F5F0FF" stroke-width="3" d="M433.707,275.931c0.907-0.374,2.102,1.176,2.62-0.324
					c0.185-0.536-0.872-1.503-1.473-2.448C434.393,274.272,434.076,275.042,433.707,275.931z"/>
				<path fill="none" stroke="#F5F0FF" stroke-width="3" d="M365.841,207.282c0.618,0.546,1.062,0.939,1.593,1.405
					c0.448-0.355,0.864-0.687,1.349-1.072c-0.423-0.511-0.768-0.923-1.202-1.453C367.04,206.51,366.545,206.831,365.841,207.282z"/>
				<path fill="none" stroke="#F5F0FF" stroke-width="3" d="M381.482,218.699c-0.967,0.845-2.137,1.521-2.523,2.729
					c0.974-0.733,1.997-1.503,3.014-2.271C381.81,219.004,381.643,218.853,381.482,218.699z"/>
				<path fill="none" stroke="#F5F0FF" stroke-width="3" d="M364.146,202.939c-0.344,0.285-0.708,0.586-1.34,1.114
					c0.632,0.493,1.173,0.912,1.721,1.335C365.841,204.346,365.841,204.319,364.146,202.939z"/>
			</g>
		</g>
		<g>
			<g>
				<path fill-rule="evenodd" clip-rule="evenodd" fill="#421D56" d="M303.883,333.293c3.05-1.568,5.118-4.242,7.424-6.636
					c2.186-2.275,4.33-4.581,6.682-7.074c-0.658-0.352-1.127-0.731-1.662-0.865c-1.628-0.401-2.377-1.667-1.883-3.349
					c0.842-2.875,5.205-5.973,8.166-5.525c0.857,0.131,1.58,1.165,2.614,1.979c1.315-1.15,3.047-2.667,5.124-4.484
					c-0.645-0.382-1.116-0.873-1.641-0.941c-1.86-0.236-2.812-1.32-2.54-3.108c0.436-2.877,4.607-6.527,7.463-6.528
					c1.599-0.007,2.608,1.042,3.154,3.426c0.891-0.944,1.705-1.809,2.54-2.694c-3.883-2.334-3.883-2.336-1.901-4.036
					c-1.226-2.593-1.272-2.686,0.968-4.75c1.226-1.128,2.662-2.025,4.206-3.184c-0.442-1.098,0.344-2.029,1.612-2.794
					c2.049-1.232,2.567-1.189,6.29,0.904c0.294-0.304,0.629-0.654,1.129-1.175c-1.018-0.789-1.91-1.422-2.717-2.149
					c-0.409-0.37-0.974-0.974-0.901-1.368c0.078-0.437,0.753-0.908,1.267-1.091c0.96-0.34,1.979-0.424,1.448-1.93
					c-0.086-0.236,0.61-0.818,1.015-1.154c1.517-1.257,3.062-2.474,4.589-3.715c0.125-0.1,0.326-0.29,0.299-0.374
					c-0.664-2.023,0.776-2.504,2.145-3.261c0.809-0.448,1.244-1.52,1.969-2.179c0.665-0.605,1.55-0.966,2.231-1.559
					c1.72-1.49,3.378-3.052,5.062-4.583c0.078-0.076,0.181-0.132,0.244-0.218c3.562-4.759,8.231-8.456,12.194-12.838
					c3.982-4.401,8.161-8.63,12.346-12.841c8.53-8.587,17.128-17.102,25.665-25.671c0.46-0.46,0.61-1.213,0.987-1.774
					c0.271-0.404,0.63-0.931,1.039-1.031c1.407-0.336,2.454-0.901,2.454-2.542c0-0.055,0.011-0.135,0.043-0.157
					c1.392-0.872,2.776-1.765,4.211-2.559c0.091-0.048,0.793,0.621,0.883,1.024c0.333,1.573,0.284,1.583,2.036,2.69
					c1.786-1.788,3.631-3.604,5.426-5.461c0.234-0.245,0.29-0.705,0.337-1.077c0.146-1.195,0.667-1.901,1.989-1.998
					c0.457-0.033,0.941-0.517,1.305-0.896c1.535-1.604,3.14-3.16,4.503-4.898c1.35-1.718,2.087-3.628,4.739-4.345
					c1.801-0.484,3.053-2.922,4.613-4.422c4.28-4.115,8.591-8.198,13.116-12.504c-1.982-1.383-1.344-2.298-0.372-3.271
					c2.116-2.118,4.061-4.433,6.323-6.378c1.179-1.017,2.878-1.424,4.354-2.089c0.285-0.129,0.722-0.072,0.895-0.269
					c1.515-1.731,2.977-3.507,4.475-5.249c0.392-0.452,0.852-0.842,1.277-1.259c0.666,0,1.332,0,1.998,0
					c1.348,0.498,2.571,1.133,2.999,2.665c0,0.778,0,1.556,0,2.33c-0.499,0.714-0.916,1.502-1.504,2.13
					c-10.554,11.175-21.139,22.323-31.686,33.509c-0.566,0.605-0.845,1.48-1.299,2.201c-0.315,0.5-0.608,1.166-1.081,1.392
					c-3.262,1.534-5.471,4.392-7.203,7.167c-1.235,1.978-3.024,2.802-4.423,4.277c-3.395,3.59-6.791,7.177-10.184,10.765
					c-8.121,8.591-16.246,17.174-24.339,25.787c-0.545,0.576-0.962,1.333-1.241,2.077c-0.599,1.597-1.79,2.318-3.35,2.645
					c-0.423,0.086-0.833,0.236-1.347,0.387c0.786,1.407,1.704,0.964,2.679,0.457c1.926-0.998,3.713-0.844,4.916,0.367
					c1.161,1.17,1.104,2.012-0.204,3.009c-2.514,1.921-5.487,1.588-8.736-1.114c0.168,3.354-1.453,4.9-4.643,4.936
					c-0.339,0.006-0.71,0.477-1.006,0.788c-11.144,11.768-22.275,23.543-33.403,35.32c-0.264,0.272-0.684,0.667-0.63,0.92
					c0.487,2.301-0.812,2.988-2.97,3.094c1.051,3.111-0.289,5.464-2.07,7.723c-1.036,1.313-2.28,1.753-3.807,1.138
					c-0.893-0.358-1.453-0.228-2.135,0.497c-11.156,11.827-22.346,23.627-33.526,35.432c-0.229,0.241-0.489,0.467-0.66,0.745
					c-1.494,2.438-1.482,2.433-3.778,0.86c-2.695-1.847-4.889-4.164-6.601-6.939C303.883,333.513,303.883,333.401,303.883,333.293z
					 M406.061,229.745c0.032-1.609,0.217-3.146-1.829-3.808c-1.131,1.021-2.35,2.113-3.637,3.273
					c0.357,0.292,0.648,0.738,0.937,0.738C402.997,229.944,404.462,229.829,406.061,229.745z M394.96,238.447
					c-1.533,1.556-2.98,3.029-4.7,4.779c0.872,0.387,1.746,0.774,2.817,1.252c0.066-0.964,0.103-1.44,0.132-1.884
					C395.406,241.784,396.265,239.537,394.96,238.447z M396.22,233.907c1.041,1.953,2.28,3.184,4.472,2.629
					c0.23-2.136-0.683-3.555-2.78-4.383C397.386,232.7,396.818,233.287,396.22,233.907z M377.103,255.186
					c-1.022-0.975-1.831-0.46-3.229,1.957c2.005,1.557,5.001,1.175,6.059-1.064c-1.585,0.28-2.976,0.523-4.713,0.829
					C375.983,256.205,376.497,255.736,377.103,255.186z M416.444,216.653c1.104-1.038,2.127-2.004,3.163-2.984
					c-0.566-0.654-1.026-1.181-1.521-1.755c-1.172,1.086-2.173,2.012-3.253,3.012C415.372,215.507,415.852,216.019,416.444,216.653z
					 M387.793,246.036c-0.896,1.015-1.783,2.024-2.718,3.083c1.47,0.39,2.761,0.729,4.18,1.104
					C388.778,248.854,389.917,247.021,387.793,246.036z M411.193,218.209c0.812,0.611,1.494,1.123,2.221,1.668
					c0.781-0.749,1.437-1.381,2.177-2.085c-0.697-0.737-1.278-1.351-1.853-1.957C412.828,216.686,412.062,217.397,411.193,218.209z
					 M410.124,220.662c-0.782,0.747-1.449,1.328-2.04,1.975c-0.175,0.194-0.277,0.637-0.171,0.855
					c0.098,0.222,0.505,0.445,0.758,0.428c1.245-0.093,2.477-0.268,3.995-0.447C411.758,222.473,411.007,221.638,410.124,220.662z
					 M353.562,284.806c0.263-0.023,0.527-0.048,0.792-0.068c-0.028-0.49-0.009-0.991-0.101-1.47
					c-0.209-1.108-0.447-2.215-0.72-3.312c-0.136-0.539-0.367-1.056-0.555-1.583c-0.427,0.221-1.092,0.344-1.223,0.677
					c-0.175,0.459-0.039,1.104,0.134,1.612c0.225,0.663,0.652,1.247,0.917,1.895C353.104,283.288,353.312,284.054,353.562,284.806z
					 M424.648,209.71c-0.965-0.808-1.739-1.456-2.503-2.094c-0.526,0.512-0.929,0.907-1.37,1.34
					C421.878,209.91,422.896,210.827,424.648,209.71z M367.767,263.818c0.54,0.498,0.889,1.021,1.356,1.19
					c0.472,0.169,1.065-0.017,1.603-0.044c-0.12-0.456-0.137-0.973-0.378-1.356c-0.31-0.49-0.794-0.872-1.273-1.375
					C368.612,262.796,368.24,263.249,367.767,263.818z M358.287,275.931c-0.368-0.889-0.688-1.658-1.146-2.772
					c-0.602,0.945-1.658,1.912-1.474,2.448C356.186,277.106,357.38,275.557,358.287,275.931z M426.154,207.282
					c-0.704-0.452-1.2-0.772-1.74-1.12c-0.435,0.53-0.778,0.942-1.2,1.453c0.484,0.385,0.898,0.716,1.346,1.072
					C425.089,208.221,425.535,207.828,426.154,207.282z M410.512,218.699c-0.164,0.154-0.324,0.305-0.49,0.457
					c1.021,0.769,2.039,1.538,3.013,2.271C412.648,220.22,411.479,219.544,410.512,218.699z M427.848,202.939
					c-1.69,1.38-1.695,1.407-0.38,2.449c0.544-0.423,1.088-0.842,1.722-1.335C428.556,203.525,428.195,203.224,427.848,202.939z"/>
				<path fill-rule="evenodd" clip-rule="evenodd" fill="#FFFFFF" d="M488.112,151.728c-0.428-1.532-1.651-2.167-2.999-2.665
					c0.998,0,1.997,0,2.999,0C488.112,149.948,488.112,150.837,488.112,151.728z"/>
				<path fill-rule="evenodd" clip-rule="evenodd" fill="#FFFFFF" d="M406.061,229.745c-1.599,0.084-3.063,0.2-4.529,0.204
					c-0.288,0-0.579-0.446-0.937-0.738c1.287-1.161,2.506-2.252,3.637-3.273C406.277,226.598,406.093,228.135,406.061,229.745z"/>
				<path fill-rule="evenodd" clip-rule="evenodd" fill="#FFFFFF" d="M394.96,238.447c1.305,1.09,0.446,3.337-1.751,4.147
					c-0.029,0.443-0.065,0.92-0.132,1.884c-1.071-0.478-1.945-0.865-2.817-1.252C391.979,241.477,393.427,240.003,394.96,238.447z"
					/>
				<path fill-rule="evenodd" clip-rule="evenodd" fill="#FFFFFF" d="M396.22,233.907c0.599-0.62,1.166-1.207,1.691-1.753
					c2.098,0.828,3.011,2.247,2.78,4.383C398.5,237.091,397.261,235.859,396.22,233.907z"/>
				<path fill-rule="evenodd" clip-rule="evenodd" fill="#FFFFFF" d="M377.103,255.186c-0.605,0.551-1.119,1.02-1.883,1.722
					c1.737-0.306,3.128-0.549,4.713-0.829c-1.058,2.239-4.054,2.621-6.059,1.064C375.271,254.726,376.08,254.211,377.103,255.186z"
					/>
				<path fill-rule="evenodd" clip-rule="evenodd" fill="#FFFFFF" d="M416.444,216.653c-0.593-0.635-1.072-1.146-1.61-1.728
					c1.08-1,2.081-1.926,3.253-3.012c0.494,0.574,0.954,1.101,1.521,1.755C418.571,214.649,417.549,215.615,416.444,216.653z"/>
				<path fill-rule="evenodd" clip-rule="evenodd" fill="#FFFFFF" d="M387.793,246.036c2.124,0.984,0.985,2.818,1.462,4.188
					c-1.419-0.376-2.71-0.715-4.18-1.104C386.01,248.061,386.897,247.051,387.793,246.036z"/>
				<path fill-rule="evenodd" clip-rule="evenodd" fill="#FFFFFF" d="M411.193,218.209c0.868-0.812,1.635-1.523,2.545-2.374
					c0.574,0.605,1.155,1.22,1.853,1.957c-0.74,0.705-1.396,1.337-2.177,2.085C412.688,219.332,412.006,218.82,411.193,218.209z"/>
				<path fill-rule="evenodd" clip-rule="evenodd" fill="#FFFFFF" d="M410.124,220.662c0.883,0.976,1.634,1.811,2.542,2.812
					c-1.519,0.179-2.75,0.354-3.995,0.447c-0.253,0.017-0.66-0.207-0.758-0.428c-0.106-0.218-0.004-0.661,0.171-0.855
					C408.675,221.99,409.342,221.409,410.124,220.662z"/>
				<path fill-rule="evenodd" clip-rule="evenodd" fill="#FFFFFF" d="M353.562,284.806c-0.25-0.752-0.458-1.518-0.755-2.25
					c-0.265-0.647-0.692-1.231-0.917-1.895c-0.173-0.509-0.309-1.153-0.134-1.612c0.131-0.333,0.796-0.456,1.223-0.677
					c0.188,0.527,0.419,1.044,0.555,1.583c0.272,1.098,0.511,2.204,0.72,3.312c0.092,0.479,0.072,0.979,0.101,1.47
					C354.09,284.758,353.825,284.782,353.562,284.806z"/>
				<path fill-rule="evenodd" clip-rule="evenodd" fill="#FFFFFF" d="M424.648,209.71c-1.753,1.117-2.771,0.2-3.873-0.754
					c0.441-0.433,0.844-0.829,1.37-1.34C422.909,208.254,423.684,208.902,424.648,209.71z"/>
				<path fill-rule="evenodd" clip-rule="evenodd" fill="#FFFFFF" d="M367.767,263.818c0.474-0.569,0.846-1.022,1.308-1.585
					c0.479,0.503,0.964,0.885,1.273,1.375c0.241,0.384,0.258,0.9,0.378,1.356c-0.537,0.027-1.131,0.213-1.603,0.044
					C368.655,264.84,368.307,264.316,367.767,263.818z"/>
				<path fill-rule="evenodd" clip-rule="evenodd" fill="#FFFFFF" d="M358.287,275.931c-0.907-0.374-2.102,1.176-2.619-0.324
					c-0.185-0.536,0.872-1.503,1.474-2.448C357.6,274.272,357.919,275.042,358.287,275.931z"/>
				<path fill-rule="evenodd" clip-rule="evenodd" fill="#FFFFFF" d="M426.154,207.282c-0.619,0.546-1.065,0.939-1.595,1.405
					c-0.447-0.355-0.861-0.687-1.346-1.072c0.422-0.511,0.766-0.923,1.2-1.453C424.954,206.51,425.45,206.831,426.154,207.282z"/>
				<path fill-rule="evenodd" clip-rule="evenodd" fill="#FFFFFF" d="M410.512,218.699c0.967,0.845,2.137,1.521,2.522,2.729
					c-0.974-0.733-1.992-1.503-3.013-2.271C410.188,219.004,410.348,218.853,410.512,218.699z"/>
				<path fill-rule="evenodd" clip-rule="evenodd" fill="#FFFFFF" d="M427.848,202.939c0.348,0.285,0.708,0.586,1.342,1.114
					c-0.634,0.493-1.178,0.912-1.722,1.335C426.152,204.346,426.157,204.319,427.848,202.939z"/>
			</g>
			<g>
				<path fill-rule="evenodd" clip-rule="evenodd" fill="#421D56" d="M488.112,333.626c-1.715,2.775-3.906,5.093-6.603,6.939
					c-2.295,1.572-2.285,1.578-3.778-0.86c-0.168-0.278-0.433-0.504-0.657-0.745c-11.183-11.805-22.374-23.604-33.53-35.432
					c-0.684-0.725-1.24-0.855-2.133-0.497c-1.527,0.615-2.771,0.176-3.807-1.138c-1.78-2.259-3.118-4.611-2.07-7.723
					c-2.158-0.105-3.457-0.793-2.968-3.094c0.051-0.253-0.372-0.647-0.63-0.92c-11.129-11.777-22.262-23.553-33.404-35.32
					c-0.297-0.312-0.667-0.782-1.006-0.788c-3.19-0.035-4.809-1.582-4.644-4.936c-3.249,2.702-6.223,3.035-8.735,1.114
					c-1.309-0.997-1.366-1.839-0.207-3.009c1.205-1.211,2.992-1.365,4.918-0.367c0.975,0.507,1.893,0.95,2.68-0.457
					c-0.515-0.15-0.924-0.301-1.346-0.387c-1.562-0.326-2.753-1.048-3.352-2.645c-0.279-0.744-0.696-1.501-1.24-2.077
					c-8.094-8.613-16.223-17.196-24.342-25.787c-3.391-3.588-6.787-7.175-10.182-10.765c-1.397-1.475-3.188-2.299-4.423-4.277
					c-1.732-2.775-3.942-5.633-7.203-7.167c-0.475-0.227-0.764-0.892-1.08-1.392c-0.458-0.721-0.732-1.596-1.303-2.201
					c-10.545-11.186-21.129-22.333-31.684-33.509c-0.588-0.628-1.006-1.416-1.501-2.13c0-0.774,0-1.552,0-2.33
					c0.425-1.532,1.652-2.167,2.998-2.665c0.665,0,1.332,0,1.999,0c0.427,0.417,0.887,0.808,1.276,1.259
					c1.498,1.741,2.96,3.518,4.476,5.249c0.173,0.197,0.61,0.14,0.894,0.269c1.474,0.665,3.177,1.072,4.354,2.089
					c2.264,1.946,4.208,4.261,6.324,6.378c0.97,0.973,1.609,1.887-0.373,3.271c4.523,4.306,8.836,8.389,13.118,12.504
					c1.56,1.5,2.812,3.938,4.613,4.422c2.651,0.716,3.389,2.626,4.735,4.345c1.364,1.738,2.971,3.293,4.507,4.898
					c0.363,0.379,0.845,0.863,1.305,0.896c1.32,0.097,1.843,0.802,1.986,1.998c0.048,0.372,0.104,0.832,0.337,1.077
					c1.798,1.856,3.637,3.673,5.425,5.461c1.752-1.107,1.705-1.117,2.041-2.69c0.087-0.403,0.789-1.073,0.881-1.024
					c1.438,0.794,2.818,1.687,4.211,2.559c0.031,0.021,0.042,0.102,0.042,0.157c0,1.641,1.048,2.207,2.454,2.542
					c0.41,0.1,0.768,0.627,1.04,1.031c0.376,0.561,0.527,1.314,0.985,1.774c8.54,8.569,17.137,17.084,25.666,25.671
					c4.185,4.211,8.365,8.44,12.345,12.841c3.963,4.382,8.638,8.079,12.192,12.838c0.064,0.086,0.169,0.142,0.251,0.218
					c1.681,1.531,3.339,3.093,5.059,4.583c0.682,0.593,1.566,0.953,2.231,1.559c0.726,0.659,1.161,1.73,1.972,2.179
					c1.363,0.757,2.806,1.237,2.145,3.261c-0.03,0.084,0.17,0.274,0.297,0.374c1.527,1.241,3.073,2.458,4.584,3.715
					c0.41,0.336,1.105,0.918,1.017,1.154c-0.528,1.506,0.489,1.59,1.452,1.93c0.509,0.183,1.187,0.654,1.267,1.091
					c0.071,0.395-0.493,0.998-0.903,1.368c-0.806,0.728-1.697,1.36-2.715,2.149c0.498,0.521,0.833,0.871,1.128,1.175
					c3.725-2.094,4.244-2.137,6.29-0.904c1.266,0.765,2.056,1.696,1.61,2.794c1.543,1.158,2.979,2.056,4.206,3.184
					c2.239,2.064,2.195,2.157,0.971,4.75c1.978,1.7,1.978,1.702-1.903,4.036c0.835,0.886,1.648,1.75,2.538,2.694
					c0.547-2.384,1.556-3.433,3.158-3.426c2.854,0.001,7.027,3.651,7.463,6.528c0.271,1.788-0.681,2.872-2.541,3.108
					c-0.527,0.068-0.999,0.56-1.639,0.941c2.075,1.817,3.806,3.334,5.121,4.484c1.035-0.814,1.755-1.849,2.614-1.979
					c2.959-0.447,7.326,2.65,8.166,5.525c0.491,1.682-0.257,2.947-1.884,3.349c-0.534,0.134-1.005,0.514-1.662,0.865
					c2.35,2.493,4.495,4.799,6.681,7.074c2.307,2.394,4.377,5.067,7.426,6.636C488.112,333.401,488.112,333.513,488.112,333.626z
					 M390.463,229.948c0.288,0,0.58-0.446,0.937-0.738c-1.289-1.161-2.505-2.252-3.638-3.273c-2.043,0.662-1.863,2.199-1.83,3.808
					C387.532,229.829,388.997,229.944,390.463,229.948z M398.785,242.595c0.033,0.443,0.065,0.92,0.131,1.884
					c1.073-0.478,1.946-0.865,2.818-1.252c-1.72-1.75-3.167-3.224-4.704-4.779C395.729,239.537,396.587,241.784,398.785,242.595z
					 M394.083,232.153c-2.098,0.828-3.011,2.247-2.779,4.383c2.19,0.555,3.432-0.677,4.471-2.629
					C395.177,233.287,394.606,232.7,394.083,232.153z M416.775,256.907c-1.738-0.306-3.13-0.549-4.714-0.829
					c1.059,2.239,4.053,2.621,6.059,1.064c-1.396-2.417-2.206-2.932-3.229-1.957C415.493,255.736,416.011,256.205,416.775,256.907z
					 M377.16,214.926c-1.08-1-2.081-1.926-3.254-3.012c-0.496,0.574-0.953,1.101-1.519,1.755c1.039,0.98,2.059,1.946,3.163,2.984
					C376.144,216.019,376.622,215.507,377.16,214.926z M402.743,250.224c1.416-0.376,2.707-0.715,4.177-1.104
					c-0.936-1.059-1.822-2.068-2.719-3.083C402.077,247.021,403.216,248.854,402.743,250.224z M378.258,215.836
					c-0.576,0.605-1.157,1.22-1.854,1.957c0.74,0.705,1.396,1.337,2.177,2.085c0.729-0.546,1.406-1.058,2.221-1.668
					C379.929,217.397,379.167,216.686,378.258,215.836z M379.331,223.474c1.519,0.179,2.748,0.354,3.989,0.447
					c0.257,0.017,0.663-0.207,0.766-0.428c0.102-0.218,0-0.661-0.176-0.855c-0.592-0.646-1.257-1.228-2.04-1.975
					C380.987,221.638,380.236,222.473,379.331,223.474z M439.186,282.556c0.266-0.647,0.695-1.231,0.916-1.895
					c0.173-0.509,0.312-1.153,0.136-1.612c-0.131-0.333-0.798-0.456-1.222-0.677c-0.188,0.527-0.42,1.044-0.552,1.583
					c-0.276,1.098-0.519,2.204-0.725,3.312c-0.09,0.479-0.068,0.979-0.098,1.47c0.266,0.021,0.527,0.045,0.793,0.068
					C438.682,284.054,438.891,283.288,439.186,282.556z M371.223,208.956c-0.443-0.433-0.848-0.829-1.375-1.34
					c-0.761,0.638-1.537,1.287-2.5,2.094C369.099,210.827,370.116,209.91,371.223,208.956z M422.92,262.233
					c-0.483,0.503-0.963,0.885-1.272,1.375c-0.24,0.384-0.261,0.9-0.38,1.356c0.54,0.027,1.132,0.213,1.603,0.044
					c0.469-0.169,0.817-0.692,1.357-1.19C423.757,263.249,423.382,262.796,422.92,262.233z M436.327,275.606
					c0.185-0.536-0.872-1.503-1.473-2.448c-0.462,1.114-0.778,1.884-1.147,2.772C434.614,275.557,435.809,277.106,436.327,275.606z
					 M367.434,208.688c0.448-0.355,0.864-0.687,1.349-1.072c-0.423-0.511-0.768-0.923-1.202-1.453
					c-0.54,0.348-1.035,0.668-1.739,1.12C366.459,207.828,366.902,208.221,367.434,208.688z M378.959,221.428
					c0.974-0.733,1.997-1.503,3.014-2.271c-0.163-0.152-0.33-0.303-0.49-0.457C380.516,219.544,379.346,220.22,378.959,221.428z
					 M362.807,204.053c0.632,0.493,1.173,0.912,1.721,1.335c1.313-1.042,1.313-1.069-0.381-2.449
					C363.803,203.224,363.438,203.525,362.807,204.053z"/>
				<path fill-rule="evenodd" clip-rule="evenodd" fill="#FFFFFF" d="M303.883,151.728c0.425-1.532,1.652-2.167,2.998-2.665
					c-0.999,0-1.999,0-2.998,0C303.883,149.948,303.883,150.837,303.883,151.728z"/>
				<path fill-rule="evenodd" clip-rule="evenodd" fill="#FFFFFF" d="M385.932,229.745c1.601,0.084,3.065,0.2,4.531,0.204
					c0.288,0,0.58-0.446,0.937-0.738c-1.289-1.161-2.505-2.252-3.638-3.273C385.719,226.598,385.898,228.135,385.932,229.745z"/>
				<path fill-rule="evenodd" clip-rule="evenodd" fill="#FFFFFF" d="M397.03,238.447c-1.301,1.09-0.443,3.337,1.755,4.147
					c0.033,0.443,0.065,0.92,0.131,1.884c1.073-0.478,1.946-0.865,2.818-1.252C400.015,241.477,398.567,240.003,397.03,238.447z"/>
				<path fill-rule="evenodd" clip-rule="evenodd" fill="#FFFFFF" d="M395.774,233.907c-0.598-0.62-1.168-1.207-1.691-1.753
					c-2.098,0.828-3.011,2.247-2.779,4.383C393.494,237.091,394.735,235.859,395.774,233.907z"/>
				<path fill-rule="evenodd" clip-rule="evenodd" fill="#FFFFFF" d="M414.892,255.186c0.602,0.551,1.119,1.02,1.884,1.722
					c-1.738-0.306-3.13-0.549-4.714-0.829c1.059,2.239,4.053,2.621,6.059,1.064C416.725,254.726,415.914,254.211,414.892,255.186z"
					/>
				<path fill-rule="evenodd" clip-rule="evenodd" fill="#FFFFFF" d="M375.551,216.653c0.593-0.635,1.071-1.146,1.609-1.728
					c-1.08-1-2.081-1.926-3.254-3.012c-0.496,0.574-0.953,1.101-1.519,1.755C373.427,214.649,374.446,215.615,375.551,216.653z"/>
				<path fill-rule="evenodd" clip-rule="evenodd" fill="#FFFFFF" d="M404.201,246.036c-2.124,0.984-0.985,2.818-1.458,4.188
					c1.416-0.376,2.707-0.715,4.177-1.104C405.984,248.061,405.098,247.051,404.201,246.036z"/>
				<path fill-rule="evenodd" clip-rule="evenodd" fill="#FFFFFF" d="M380.801,218.209c-0.872-0.812-1.634-1.523-2.543-2.374
					c-0.576,0.605-1.157,1.22-1.854,1.957c0.74,0.705,1.396,1.337,2.177,2.085C379.309,219.332,379.986,218.82,380.801,218.209z"/>
				<path fill-rule="evenodd" clip-rule="evenodd" fill="#FFFFFF" d="M381.87,220.662c-0.883,0.976-1.634,1.811-2.539,2.812
					c1.519,0.179,2.748,0.354,3.989,0.447c0.257,0.017,0.663-0.207,0.766-0.428c0.102-0.218,0-0.661-0.176-0.855
					C383.318,221.99,382.653,221.409,381.87,220.662z"/>
				<path fill-rule="evenodd" clip-rule="evenodd" fill="#FFFFFF" d="M438.435,284.806c0.247-0.752,0.456-1.518,0.751-2.25
					c0.266-0.647,0.695-1.231,0.916-1.895c0.173-0.509,0.312-1.153,0.136-1.612c-0.131-0.333-0.798-0.456-1.222-0.677
					c-0.188,0.527-0.42,1.044-0.552,1.583c-0.276,1.098-0.519,2.204-0.725,3.312c-0.09,0.479-0.068,0.979-0.098,1.47
					C437.907,284.758,438.169,284.782,438.435,284.806z"/>
				<path fill-rule="evenodd" clip-rule="evenodd" fill="#FFFFFF" d="M367.348,209.71c1.751,1.117,2.769,0.2,3.875-0.754
					c-0.443-0.433-0.848-0.829-1.375-1.34C369.087,208.254,368.311,208.902,367.348,209.71z"/>
				<path fill-rule="evenodd" clip-rule="evenodd" fill="#FFFFFF" d="M424.228,263.818c-0.471-0.569-0.846-1.022-1.308-1.585
					c-0.483,0.503-0.963,0.885-1.272,1.375c-0.24,0.384-0.261,0.9-0.38,1.356c0.54,0.027,1.132,0.213,1.603,0.044
					C423.339,264.84,423.688,264.316,424.228,263.818z"/>
				<path fill-rule="evenodd" clip-rule="evenodd" fill="#FFFFFF" d="M433.707,275.931c0.907-0.374,2.102,1.176,2.62-0.324
					c0.185-0.536-0.872-1.503-1.473-2.448C434.393,274.272,434.076,275.042,433.707,275.931z"/>
				<path fill-rule="evenodd" clip-rule="evenodd" fill="#FFFFFF" d="M365.841,207.282c0.618,0.546,1.062,0.939,1.593,1.405
					c0.448-0.355,0.864-0.687,1.349-1.072c-0.423-0.511-0.768-0.923-1.202-1.453C367.04,206.51,366.545,206.831,365.841,207.282z"/>
				<path fill-rule="evenodd" clip-rule="evenodd" fill="#FFFFFF" d="M381.482,218.699c-0.967,0.845-2.137,1.521-2.523,2.729
					c0.974-0.733,1.997-1.503,3.014-2.271C381.81,219.004,381.643,218.853,381.482,218.699z"/>
				<path fill-rule="evenodd" clip-rule="evenodd" fill="#FFFFFF" d="M364.146,202.939c-0.344,0.285-0.708,0.586-1.34,1.114
					c0.632,0.493,1.173,0.912,1.721,1.335C365.841,204.346,365.841,204.319,364.146,202.939z"/>
			</g>
		</g>
	</g>
	<text transform="matrix(1 0 0 1 295.1626 262.2334)" fill="#FFFFFF" font-family="'MinionPro-Medium'" font-size="66.1451">B</text>
	<text transform="matrix(1 0 0 1 453.4248 262.2334)" fill="#FFFFFF" font-family="'MinionPro-Medium'" font-size="66.1451">P</text>
</g>
</svg>
